<?xml version="1.0" encoding="UTF-8"?>
<svg width="299px" height="100px" viewBox="0 0 299 100" version="1.1" xmlns="http://www.w3.org/2000/svg" xmlns:xlink="http://www.w3.org/1999/xlink">
    <!-- Generator: Sketch 52.4 (67378) - http://www.bohemiancoding.com/sketch -->
    <title>logo-horizontal</title>
    <desc>Created with Sketch.</desc>
    <g id="Amber" stroke="none" stroke-width="1" fill="none" fill-rule="evenodd">
        <g id="Artboard-Copy-2" transform="translate(-50.000000, -50.000000)">
            <g id="logo-horizontal" transform="translate(50.000000, 50.000000)">
                <g id="Text/Horizontal" transform="translate(164.000000, 30.000000)" fill="#4C4C4C">
                    <g id="text">
                        <g id="design-system" transform="translate(0.000000, 50.000000)">
                            <g id="system" transform="translate(68.000000, 0.000000)">
                                <polygon id="Fill-16" points="55.7715 1.1299 57.0405 1.1299 61.0565 17.9319 65.1445 1.1299 66.4595 1.1299 67.0005 19.7469 65.8965 19.7469 65.4265 4.1419 61.5505 19.7469 60.6105 19.7469 56.7815 4.1639 56.3115 19.7469 55.2085 19.7469"></polygon>
                                <polygon id="Fill-15" points="45.6006 1.1299 52.1776 1.1299 52.1776 2.1409 46.8926 2.1409 46.8926 9.6099 51.2386 9.6099 51.2386 10.5769 46.8926 10.5769 46.8926 18.7589 52.2476 18.7589 52.2476 19.7469 45.6006 19.7469"></polygon>
                                <polygon id="Fill-14" points="37.8252 2.1406 34.0202 2.1406 34.0202 1.1296 42.8052 1.1296 42.8052 2.1406 39.0952 2.1406 39.0952 19.7466 37.8252 19.7466"></polygon>
                                <path d="M23.3311,15.1504 L24.4351,14.8054 C24.6231,16.1844 24.9631,17.2184 25.4571,17.9084 C25.9501,18.5974 26.7761,18.9424 27.9351,18.9424 C29.9551,18.9424 30.9661,17.9464 30.9661,15.9544 C30.9661,15.1884 30.7691,14.4914 30.3781,13.8624 C29.9861,13.2354 29.3601,12.5004 28.4991,11.6574 L25.0221,8.2784 C23.9101,7.1904 23.3541,6.0104 23.3541,4.7384 C23.3541,3.5284 23.7331,2.5894 24.4931,1.9224 C25.2531,1.2564 26.2681,0.9234 27.5361,0.9234 C28.8981,0.9234 29.9471,1.2794 30.6841,1.9924 C31.4201,2.7054 31.8431,3.9034 31.9521,5.5884 L30.8721,5.8414 C30.7621,4.4774 30.4611,3.4864 29.9671,2.8654 C29.4751,2.2454 28.6711,1.9344 27.5601,1.9344 C26.6501,1.9344 25.9191,2.1614 25.3631,2.6124 C24.8081,3.0644 24.5291,3.7424 24.5291,4.6464 C24.5291,5.1364 24.6351,5.6084 24.8461,6.0594 C25.0581,6.5124 25.4141,6.9834 25.9151,7.4734 L29.3451,10.7834 C30.2221,11.6264 30.9101,12.4614 31.4121,13.2884 C31.9131,14.1164 32.1641,14.9814 32.1641,15.8854 C32.1641,17.2334 31.7791,18.2534 31.0121,18.9424 C30.2451,19.6314 29.2121,19.9764 27.9111,19.9764 C25.1081,19.9764 23.5811,18.3684 23.3311,15.1504" id="Fill-13"></path>
                                <polygon id="Fill-12" points="15.7666 13.7939 11.3736 1.1299 12.6906 1.1299 16.4246 12.3009 19.9726 1.1299 21.2876 1.1299 17.0366 13.7939 17.0366 19.7469 15.7666 19.7469"></polygon>
                                <path d="M0.6855,15.1504 L1.7895,14.8054 C1.9775,16.1844 2.3185,17.2184 2.8125,17.9084 C3.3055,18.5974 4.1315,18.9424 5.2905,18.9424 C7.3105,18.9424 8.3205,17.9464 8.3205,15.9544 C8.3205,15.1884 8.1245,14.4914 7.7335,13.8624 C7.3415,13.2354 6.7155,12.5004 5.8545,11.6574 L2.3765,8.2784 C1.2645,7.1904 0.7095,6.0104 0.7095,4.7384 C0.7095,3.5284 1.0885,2.5894 1.8485,1.9224 C2.6085,1.2564 3.6225,0.9234 4.8915,0.9234 C6.2525,0.9234 7.3025,1.2794 8.0395,1.9924 C8.7745,2.7054 9.1985,3.9034 9.3065,5.5884 L8.2265,5.8414 C8.1175,4.4774 7.8155,3.4864 7.3225,2.8654 C6.8295,2.2454 6.0265,1.9344 4.9145,1.9344 C4.0055,1.9344 3.2735,2.1614 2.7185,2.6124 C2.1625,3.0644 1.8845,3.7424 1.8845,4.6464 C1.8845,5.1364 1.9905,5.6084 2.2015,6.0594 C2.4135,6.5124 2.7685,6.9834 3.2695,7.4734 L6.7005,10.7834 C7.5765,11.6264 8.2655,12.4614 8.7675,13.2884 C9.2685,14.1164 9.5185,14.9814 9.5185,15.8854 C9.5185,17.2334 9.1345,18.2534 8.3675,18.9424 C7.6005,19.6314 6.5675,19.9764 5.2665,19.9764 C2.4635,19.9764 0.9365,18.3684 0.6855,15.1504" id="Fill-11"></path>
                            </g>
                            <g id="design">
                                <polygon id="Fill-10" points="51.75 1.1299 52.76 1.1299 59.22 16.8509 59.22 1.1299 60.348 1.1299 60.348 19.7469 59.337 19.7469 52.877 4.0029 52.877 19.7469 51.75 19.7469"></polygon>
                                <path d="M39.793,18.5283 C39.12,17.5483 38.783,16.1543 38.783,14.3453 L38.783,6.4393 C38.783,4.6623 39.123,3.2983 39.804,2.3483 C40.486,1.3983 41.688,0.9243 43.41,0.9243 C44.992,0.9243 46.119,1.3753 46.793,2.2793 C47.466,3.1833 47.803,4.5013 47.803,6.2323 L47.803,6.8763 L46.582,6.8763 L46.582,6.1633 C46.582,4.7223 46.351,3.6623 45.889,2.9803 C45.427,2.2993 44.601,1.9583 43.41,1.9583 C42.11,1.9583 41.23,2.3333 40.768,3.0843 C40.306,3.8343 40.075,4.9373 40.075,6.3923 L40.075,14.5073 C40.075,15.9773 40.317,17.0893 40.803,17.8393 C41.288,18.5903 42.165,18.9653 43.435,18.9653 C44.623,18.9653 45.454,18.6013 45.924,17.8743 C46.394,17.1453 46.629,16.0463 46.629,14.5753 L46.629,11.8413 L43.599,11.8413 L43.599,10.8753 L47.827,10.8753 L47.827,19.7473 L47.005,19.7473 L46.816,17.6553 C46.566,18.4223 46.162,19.0043 45.607,19.4023 C45.051,19.8003 44.295,20.0003 43.34,20.0003 C41.648,20.0003 40.466,19.5093 39.793,18.5283" id="Fill-9"></path>
                                <polygon id="Fill-7" points="33.78 19.747 35.048 19.747 35.048 1.13 33.78 1.13"></polygon>
                                <path d="M21.7754,15.1504 L22.8794,14.8054 C23.0674,16.1844 23.4084,17.2184 23.9024,17.9084 C24.3954,18.5974 25.2214,18.9424 26.3804,18.9424 C28.4004,18.9424 29.4104,17.9464 29.4104,15.9544 C29.4104,15.1884 29.2144,14.4914 28.8234,13.8624 C28.4314,13.2354 27.8054,12.5004 26.9434,11.6574 L23.4664,8.2784 C22.3544,7.1904 21.7994,6.0104 21.7994,4.7384 C21.7994,3.5284 22.1784,2.5894 22.9384,1.9224 C23.6984,1.2564 24.7124,0.9234 25.9814,0.9234 C27.3424,0.9234 28.3924,1.2794 29.1294,1.9924 C29.8644,2.7054 30.2884,3.9034 30.3964,5.5884 L29.3164,5.8414 C29.2074,4.4774 28.9054,3.4864 28.4124,2.8654 C27.9194,2.2454 27.1164,1.9344 26.0044,1.9344 C25.0954,1.9344 24.3634,2.1614 23.8084,2.6124 C23.2524,3.0644 22.9744,3.7424 22.9744,4.6464 C22.9744,5.1364 23.0804,5.6084 23.2914,6.0594 C23.5034,6.5124 23.8584,6.9834 24.3594,7.4734 L27.7904,10.7834 C28.6664,11.6264 29.3554,12.4614 29.8574,13.2884 C30.3584,14.1164 30.6084,14.9814 30.6084,15.8854 C30.6084,17.2334 30.2244,18.2534 29.4574,18.9424 C28.6904,19.6314 27.6574,19.9764 26.3564,19.9764 C23.5534,19.9764 22.0264,18.3684 21.7754,15.1504" id="Fill-5"></path>
                                <polygon id="Fill-3" points="12.708 1.1299 19.285 1.1299 19.285 2.1409 14 2.1409 14 9.6099 18.346 9.6099 18.346 10.5769 14 10.5769 14 18.7589 19.356 18.7589 19.356 19.7469 12.708 19.7469"></polygon>
                                <path d="M4.2041,18.7588 C5.1761,18.7588 5.9201,18.5558 6.4361,18.1498 C6.9541,17.7438 7.2981,17.2028 7.4711,16.5298 C7.6421,15.8548 7.7281,15.0348 7.7281,14.0708 L7.7281,6.5768 C7.7281,5.0908 7.4741,3.9798 6.9651,3.2438 C6.4561,2.5088 5.5201,2.1408 4.1571,2.1408 L1.2681,2.1408 L1.2681,18.7588 L4.2041,18.7588 Z M0.0001,1.1298 L4.1571,1.1298 C5.9281,1.1298 7.1811,1.6098 7.9161,2.5668 C8.6521,3.5248 9.0201,4.8308 9.0201,6.4858 L9.0201,14.2068 C9.0201,15.9538 8.6641,17.3148 7.9521,18.2868 C7.2391,19.2598 6.0141,19.7468 4.2751,19.7468 L0.0001,19.7468 L0.0001,1.1298 Z" id="Fill-1"></path>
                            </g>
                        </g>
                        <g id="amber">
                            <path d="M122.2041,17.4224 C124.5991,17.4224 126.3131,16.9534 127.3471,16.0164 C128.3801,15.0784 128.8961,13.3814 128.8961,10.9244 C128.8961,9.3094 128.7161,8.0404 128.3551,7.1184 C127.9941,6.1974 127.3541,5.5184 126.4361,5.0814 C125.5171,4.6454 124.2221,4.4274 122.5481,4.4274 L120.0871,4.4274 L120.0871,17.4224 L122.2041,17.4224 Z M114.5261,0.5004 L122.5481,0.5004 C126.5841,0.5004 129.5451,1.3164 131.4321,2.9484 C133.3171,4.5804 134.2621,7.2394 134.2621,10.9244 C134.2621,15.9674 132.6211,19.0224 129.3401,20.0894 L135.0001,39.7754 L129.6351,39.7754 L124.4181,21.3494 L120.0871,21.3494 L120.0871,39.7754 L114.5261,39.7754 L114.5261,0.5004 Z" id="Fill-21"></path>
                            <polygon id="Fill-20" points="92.0332 0.5 107.4862 0.5 107.4862 4.573 97.5952 4.573 97.5952 17.567 105.6172 17.567 105.6172 21.446 97.5952 21.446 97.5952 35.848 107.5862 35.848 107.5862 39.775 92.0332 39.775"></polygon>
                            <path d="M73.085,35.8477 C74.726,35.8477 75.997,35.5977 76.899,35.0957 C77.802,34.5947 78.434,33.8277 78.795,32.7927 C79.155,31.7587 79.336,30.3527 79.336,28.5747 C79.336,26.0527 78.811,24.1697 77.761,22.9257 C76.711,21.6817 75.005,21.0587 72.643,21.0587 L69.345,21.0587 L69.345,35.8477 L73.085,35.8477 Z M72.643,16.8897 C74.939,16.8897 76.53,16.3967 77.416,15.4107 C78.303,14.4247 78.745,12.7357 78.745,10.3437 C78.745,8.5977 78.475,7.3117 77.934,6.4887 C77.392,5.6637 76.58,5.1387 75.497,4.9117 C74.414,4.6867 72.807,4.5737 70.674,4.5737 L69.345,4.5737 L69.345,16.8897 L72.643,16.8897 Z M63.784,0.4997 L72.938,0.4997 C76.547,0.4997 79.221,1.3007 80.96,2.8997 C82.698,4.4997 83.568,6.9817 83.568,10.3437 C83.568,15.3537 81.665,18.1177 77.859,18.6347 C80.222,19.1847 81.944,20.2757 83.027,21.9077 C84.109,23.5397 84.651,25.7617 84.651,28.5747 C84.651,32.0987 83.806,34.8457 82.117,36.8177 C80.426,38.7887 77.859,39.7757 74.414,39.7757 L63.784,39.7757 L63.784,0.4997 Z" id="Fill-19"></path>
                            <polygon id="Fill-18" points="29.4805 0.5 34.9435 0.5 41.9815 32.356 49.0685 0.5 54.4825 0.5 55.2205 39.775 50.7425 39.775 50.2985 11.264 43.5555 39.775 40.4075 39.775 33.7125 11.264 33.2705 39.775 28.7425 39.775"></polygon>
                            <path d="M14.5186,25.9561 L11.1716,8.2581 L7.8746,25.9561 L14.5186,25.9561 Z M8.4646,0.5001 L13.8306,0.5001 L22.3446,39.7751 L17.0786,39.7751 L15.2566,29.8841 L7.1366,29.8841 L5.2166,39.7751 L-0.0004,39.7751 L8.4646,0.5001 Z" id="Fill-17"></path>
                        </g>
                    </g>
                </g>
                <g id="Shape/Color">
                    <g id="Group">
                        <polygon id="Fill-22" fill="#F29100" points="55.207 -1.77635684e-14 33.421 39.463 95.238 -1.77635684e-14"></polygon>
                        <polygon id="Fill-23" fill="#EE7D00" points="7.10542736e-15 100 82.207 100 84.754 80.453 33.421 39.463"></polygon>
                        <polygon id="Fill-24" fill="#E74E0F" points="140 100 95.238 0 84.754 80.453 109.232 100"></polygon>
                        <polygon id="Fill-25" fill="#EB6608" points="33.4209 39.4629 84.7539 80.4529 95.2379 -0.0001"></polygon>
                    </g>
                </g>
            </g>
        </g>
    </g>
</svg>